<?xml version="1.0" standalone="no"?>
<!DOCTYPE svg PUBLIC "-//W3C//DTD SVG 20010904//EN"
 "http://www.w3.org/TR/2001/REC-SVG-20010904/DTD/svg10.dtd">
<svg version="1.0" xmlns="http://www.w3.org/2000/svg"
 width="300.000000pt" height="300.000000pt" viewBox="0 0 300.000000 300.000000"
 preserveAspectRatio="xMidYMid meet">
<metadata>
Created by potrace 1.10, written by Peter Selinger 2001-2011
</metadata>
<g transform="translate(0.000000,300.000000) scale(0.100000,-0.100000)"
fill="#000000" stroke="none">
<path d="M953 2153 c-8 -20 7 -33 37 -33 38 0 77 -47 85 -103 4 -23 5 -242 3
-487 -3 -399 -5 -448 -20 -477 -26 -46 -65 -73 -107 -73 -57 0 -65 10 -57 73
8 60 -8 109 -39 121 -40 15 -96 6 -122 -20 -23 -23 -25 -31 -21 -86 4 -55 8
-64 40 -94 45 -41 101 -56 198 -56 115 0 195 35 253 110 58 75 60 95 66 595
l6 459 24 19 c13 10 34 19 47 19 18 0 24 5 24 23 l0 22 -206 0 c-152 0 -208
-3 -211 -12z m290 -65 c-16 -30 -18 -77 -23 -493 -5 -460 -5 -460 -29 -508
-14 -28 -41 -61 -64 -78 -60 -44 -71 -38 -39 23 l27 52 -3 484 c-2 391 -5 490
-17 518 l-14 34 90 0 90 0 -18 -32z m-403 -963 c7 -8 13 -46 14 -85 2 -63 0
-70 -17 -70 -10 0 -34 15 -53 34 -38 38 -46 92 -18 120 20 20 58 21 74 1z"/>
<path d="M1540 2077 c0 -52 -3 -109 -6 -126 -9 -45 21 -42 36 4 15 45 53 91
94 112 31 16 266 33 266 20 0 -10 -734 -1221 -762 -1256 -10 -13 -17 -26 -15
-28 8 -7 162 63 217 99 143 92 253 211 406 438 84 124 88 133 69 144 -36 21
-75 64 -75 85 0 11 20 43 44 70 52 58 114 148 145 209 l22 43 -28 50 c-23 42
-25 52 -12 60 34 21 91 7 136 -33 12 -11 26 -17 31 -14 11 7 122 191 122 203
0 4 -155 10 -345 11 l-345 4 0 -95z m120 39 c0 -2 -18 -15 -40 -30 l-40 -26 0
30 c0 28 2 30 40 30 22 0 40 -2 40 -4z m490 -11 c0 -9 -11 -33 -25 -55 l-25
-40 -40 20 c-21 11 -53 20 -70 20 -23 0 -30 4 -30 19 0 11 -4 23 -10 26 -28
18 0 25 95 25 87 0 105 -3 105 -15z m-230 -184 c21 -39 9 -52 -25 -27 -11 8
-16 19 -12 30 9 22 24 20 37 -3z m-27 -65 c8 -20 -20 -43 -35 -28 -14 14 -3
42 16 42 7 0 16 -6 19 -14z m-39 -61 c18 -13 18 -16 2 -40 -20 -30 -27 -31
-50 -6 -14 15 -15 24 -6 40 13 24 28 26 54 6z m-54 -91 c0 -19 -28 -30 -42
-16 -8 8 -8 15 1 26 14 17 41 10 41 -10z m-45 -54 c3 -5 -1 -24 -10 -41 -21
-39 -14 -68 27 -115 l32 -36 -18 -32 c-102 -177 -296 -398 -423 -480 -76 -49
-99 -57 -89 -30 8 20 155 266 324 542 114 186 141 219 157 192z"/>
<path d="M2210 1204 c-6 -14 -10 -29 -10 -33 0 -22 -65 -93 -102 -113 -40 -22
-58 -23 -273 -28 l-230 -5 -57 -45 c-31 -25 -57 -47 -57 -50 -1 -6 718 -2 735
4 6 2 14 44 17 95 4 49 10 115 13 146 6 47 4 55 -10 55 -9 0 -21 -12 -26 -26z
m-24 -210 l-6 -24 -286 0 c-188 0 -283 3 -279 10 4 6 84 10 208 10 219 0 252
5 318 50 l44 29 3 -26 c2 -14 1 -36 -2 -49z"/>
</g>
</svg>
