<?xml version="1.0" standalone="no"?>
<!DOCTYPE svg PUBLIC "-//W3C//DTD SVG 20010904//EN"
 "http://www.w3.org/TR/2001/REC-SVG-20010904/DTD/svg10.dtd">
<svg version="1.0" xmlns="http://www.w3.org/2000/svg"
 width="300.000000pt" height="300.000000pt" viewBox="0 0 300.000000 300.000000"
 preserveAspectRatio="xMidYMid meet">
<metadata>
Created by potrace 1.10, written by Peter Selinger 2001-2011
</metadata>
<g transform="translate(0.000000,300.000000) scale(0.050000,-0.050000)"
fill="#000000" stroke="none">
<path d="M3080 4090 c0 -251 17 -305 58 -187 71 205 169 257 481 257 l241 0
-337 -555 c-732 -1207 -1175 -1936 -1192 -1963 -26 -43 70 -14 259 78 324 157
626 456 956 945 192 285 192 285 117 324 -144 74 -154 159 -36 287 97 105 225
290 291 419 l43 85 -50 97 c-77 154 38 200 210 84 48 -32 93 -55 100 -50 32
20 240 391 229 409 -8 13 -265 20 -691 20 l-679 0 0 -250z m693 -381 c16 -41
-16 -72 -51 -50 -30 18 -16 81 18 81 12 0 27 -14 33 -31z m-183 -309 c0 -16
-16 -32 -35 -36 -25 -5 -35 6 -35 36 0 30 10 41 35 36 19 -4 35 -20 35 -36z"/>
<path d="M1904 4286 c4 -21 34 -40 76 -49 156 -32 152 -6 168 -971 18 -1079
11 -1161 -120 -1264 -132 -103 -260 -41 -238 115 23 169 -36 243 -193 243
-234 0 -245 -351 -15 -471 224 -117 612 -56 786 123 156 161 159 183 171 1225
l11 927 47 38 c26 21 69 38 95 38 35 0 48 11 48 40 0 39 -13 40 -421 40 -387
0 -421 -3 -415 -34z"/>
<path d="M4420 2409 c-11 -29 -20 -59 -20 -67 0 -43 -130 -186 -205 -226 -80
-43 -111 -46 -545 -52 l-460 -7 -110 -98 -110 -98 735 0 734 -1 10 45 c9 43
51 480 51 531 0 45 -61 24 -80 -27z"/>
</g>
</svg>
