<?xml version="1.0" standalone="no"?>
<!DOCTYPE svg PUBLIC "-//W3C//DTD SVG 20010904//EN"
 "http://www.w3.org/TR/2001/REC-SVG-20010904/DTD/svg10.dtd">
<svg version="1.0" xmlns="http://www.w3.org/2000/svg"
 width="1024.000000pt" height="1024.000000pt" viewBox="0 0 1024.000000 1024.000000"
 preserveAspectRatio="xMidYMid meet">
<metadata>
Created by potrace 1.10, written by Peter Selinger 2001-2011
</metadata>
<g transform="translate(0.000000,1024.000000) scale(0.100000,-0.100000)"
fill="#000000" stroke="none">
<path d="M1430 8961 c0 -26 4 -29 45 -36 57 -8 111 -53 125 -103 13 -50 14
-1414 0 -1463 -23 -82 -82 -138 -153 -146 -101 -12 -125 14 -107 112 20 108
-21 176 -115 190 -87 14 -155 -44 -163 -138 -5 -69 11 -119 54 -167 111 -123
431 -131 599 -15 74 50 131 135 163 240 13 42 17 159 21 725 l6 675 24 34 c24
34 74 61 111 61 16 0 20 7 20 30 l0 30 -315 0 -315 0 0 -29z"/>
<path d="M2306 8938 c-3 -29 -6 -113 -6 -185 0 -124 1 -133 19 -133 14 0 24
14 36 48 39 108 110 174 204 192 29 5 117 10 193 10 125 0 139 -2 134 -16 -9
-22 -287 -487 -464 -774 -80 -129 -243 -397 -362 -595 -119 -198 -242 -400
-274 -449 -66 -102 -68 -100 75 -45 194 75 406 239 573 444 123 151 342 464
353 504 2 10 -8 23 -29 35 -71 41 -115 99 -103 138 4 11 35 50 69 87 65 71
148 191 211 305 l38 69 -39 73 c-37 70 -38 74 -21 91 13 13 32 18 68 17 41 0
59 -7 109 -42 32 -23 65 -40 72 -37 18 7 190 294 182 306 -3 5 -218 9 -518 9
l-513 0 -7 -52z m529 -428 c0 -18 -6 -26 -23 -28 -13 -2 -25 3 -28 12 -10 26
4 48 28 44 17 -2 23 -10 23 -28z m-141 -206 c7 -19 -10 -44 -29 -44 -19 0 -36
25 -29 44 3 9 16 16 29 16 13 0 26 -7 29 -16z"/>
<path d="M3307 7527 c-24 -75 -73 -145 -126 -179 -86 -54 -115 -58 -463 -58
l-318 0 -82 -72 c-46 -39 -87 -75 -93 -80 -5 -4 243 -7 550 -6 l560 3 21 215
c11 118 19 218 17 223 -2 4 -14 7 -27 7 -18 0 -25 -10 -39 -53z"/>
</g>
</svg>
